<mxfile host="app.diagrams.net" agent="Mozilla/5.0 (Windows NT 10.0; Win64; x64) AppleWebKit/537.36 (KHTML, like Gecko) Chrome/141.0.0.0 Safari/537.36 Edg/141.0.0.0" version="28.2.5">
  <diagram id="C5RBs43oDa-KdzZeNtuy" name="Page-1">
    <mxGraphModel dx="2298" dy="2453" grid="1" gridSize="10" guides="1" tooltips="1" connect="1" arrows="1" fold="1" page="1" pageScale="1" pageWidth="827" pageHeight="1169" math="0" shadow="0">
      <root>
        <mxCell id="WIyWlLk6GJQsqaUBKTNV-0" />
        <mxCell id="WIyWlLk6GJQsqaUBKTNV-1" parent="WIyWlLk6GJQsqaUBKTNV-0" />
        <mxCell id="UZqX43Rpj6E_O7g7snm4-7" value="EstadoCivil" style="swimlane;fontStyle=0;align=center;verticalAlign=top;childLayout=stackLayout;horizontal=1;startSize=26;horizontalStack=0;resizeParent=1;resizeLast=0;collapsible=1;marginBottom=0;rounded=0;shadow=0;strokeWidth=1;" parent="WIyWlLk6GJQsqaUBKTNV-1" vertex="1">
          <mxGeometry x="1230" y="-660" width="180" height="90" as="geometry">
            <mxRectangle x="560" y="380" width="160" height="26" as="alternateBounds" />
          </mxGeometry>
        </mxCell>
        <mxCell id="UZqX43Rpj6E_O7g7snm4-11" value="" style="line;html=1;strokeWidth=1;align=left;verticalAlign=middle;spacingTop=-1;spacingLeft=3;spacingRight=3;rotatable=0;labelPosition=right;points=[];portConstraint=eastwest;" parent="UZqX43Rpj6E_O7g7snm4-7" vertex="1">
          <mxGeometry y="26" width="180" height="8" as="geometry" />
        </mxCell>
        <mxCell id="UZqX43Rpj6E_O7g7snm4-12" value="+ new(Boolean tieneConyuge)" style="text;align=left;verticalAlign=top;spacingLeft=4;spacingRight=4;overflow=hidden;rotatable=0;points=[[0,0.5],[1,0.5]];portConstraint=eastwest;fontStyle=4" parent="UZqX43Rpj6E_O7g7snm4-7" vertex="1">
          <mxGeometry y="34" width="180" height="26" as="geometry" />
        </mxCell>
        <mxCell id="03YbIPLs-VKFAo-6Qb1y-49" value="+ tieneConyuge(): Boolean" style="text;align=left;verticalAlign=top;spacingLeft=4;spacingRight=4;overflow=hidden;rotatable=0;points=[[0,0.5],[1,0.5]];portConstraint=eastwest;" vertex="1" parent="UZqX43Rpj6E_O7g7snm4-7">
          <mxGeometry y="60" width="180" height="26" as="geometry" />
        </mxCell>
        <mxCell id="U2_cQN8DCtw2l2Un_i4g-39" style="edgeStyle=orthogonalEdgeStyle;rounded=0;orthogonalLoop=1;jettySize=auto;html=1;exitX=0.5;exitY=1;exitDx=0;exitDy=0;" parent="WIyWlLk6GJQsqaUBKTNV-1" edge="1">
          <mxGeometry relative="1" as="geometry">
            <mxPoint x="80" y="-190" as="sourcePoint" />
            <mxPoint x="80" y="-190" as="targetPoint" />
          </mxGeometry>
        </mxCell>
        <mxCell id="U2_cQN8DCtw2l2Un_i4g-49" value="" style="endArrow=none;html=1;rounded=0;" parent="WIyWlLk6GJQsqaUBKTNV-1" edge="1">
          <mxGeometry width="50" height="50" relative="1" as="geometry">
            <mxPoint x="680" y="-254" as="sourcePoint" />
            <mxPoint x="1160" y="-254" as="targetPoint" />
          </mxGeometry>
        </mxCell>
        <mxCell id="x0IX8e2E6TT8ZVlUjf_a-4" value="Empleado" style="swimlane;fontStyle=2;align=center;verticalAlign=top;childLayout=stackLayout;horizontal=1;startSize=26;horizontalStack=0;resizeParent=1;resizeLast=0;collapsible=1;marginBottom=0;rounded=0;shadow=0;strokeWidth=1;labelBorderColor=none;" parent="WIyWlLk6GJQsqaUBKTNV-1" vertex="1">
          <mxGeometry x="810" y="-690" width="243" height="400" as="geometry">
            <mxRectangle x="560" y="380" width="160" height="26" as="alternateBounds" />
          </mxGeometry>
        </mxCell>
        <mxCell id="03YbIPLs-VKFAo-6Qb1y-4" value="- cantHijos: int" style="text;align=left;verticalAlign=top;spacingLeft=4;spacingRight=4;overflow=hidden;rotatable=0;points=[[0,0.5],[1,0.5]];portConstraint=eastwest;fontStyle=0" vertex="1" parent="x0IX8e2E6TT8ZVlUjf_a-4">
          <mxGeometry y="26" width="243" height="26" as="geometry" />
        </mxCell>
        <mxCell id="03YbIPLs-VKFAo-6Qb1y-7" value="- cantHorasTrabajadas: Double" style="text;align=left;verticalAlign=top;spacingLeft=4;spacingRight=4;overflow=hidden;rotatable=0;points=[[0,0.5],[1,0.5]];portConstraint=eastwest;fontStyle=0" vertex="1" parent="x0IX8e2E6TT8ZVlUjf_a-4">
          <mxGeometry y="52" width="243" height="26" as="geometry" />
        </mxCell>
        <mxCell id="x0IX8e2E6TT8ZVlUjf_a-5" value="" style="line;html=1;strokeWidth=1;align=left;verticalAlign=middle;spacingTop=-1;spacingLeft=3;spacingRight=3;rotatable=0;labelPosition=right;points=[];portConstraint=eastwest;" parent="x0IX8e2E6TT8ZVlUjf_a-4" vertex="1">
          <mxGeometry y="78" width="243" height="10" as="geometry" />
        </mxCell>
        <mxCell id="x0IX8e2E6TT8ZVlUjf_a-6" value="+ sueldo(): Double" style="text;align=left;verticalAlign=top;spacingLeft=4;spacingRight=4;overflow=hidden;rotatable=0;points=[[0,0.5],[1,0.5]];portConstraint=eastwest;fontStyle=0;labelBackgroundColor=none;textShadow=0;fillColor=#cce5ff;strokeColor=#36393d;" parent="x0IX8e2E6TT8ZVlUjf_a-4" vertex="1">
          <mxGeometry y="88" width="243" height="26" as="geometry" />
        </mxCell>
        <mxCell id="03YbIPLs-VKFAo-6Qb1y-62" value="+ valorHoraTrabajada(): Double" style="text;align=left;verticalAlign=top;spacingLeft=4;spacingRight=4;overflow=hidden;rotatable=0;points=[[0,0.5],[1,0.5]];portConstraint=eastwest;fontStyle=2" vertex="1" parent="x0IX8e2E6TT8ZVlUjf_a-4">
          <mxGeometry y="114" width="243" height="26" as="geometry" />
        </mxCell>
        <mxCell id="x0IX8e2E6TT8ZVlUjf_a-7" value="+ sueldoBasico(): Double" style="text;align=left;verticalAlign=top;spacingLeft=4;spacingRight=4;overflow=hidden;rotatable=0;points=[[0,0.5],[1,0.5]];portConstraint=eastwest;fontStyle=2;labelBackgroundColor=none;labelBorderColor=default;" parent="x0IX8e2E6TT8ZVlUjf_a-4" vertex="1">
          <mxGeometry y="140" width="243" height="26" as="geometry" />
        </mxCell>
        <mxCell id="03YbIPLs-VKFAo-6Qb1y-51" value="+ montoFamiliar(): Double" style="text;align=left;verticalAlign=top;spacingLeft=4;spacingRight=4;overflow=hidden;rotatable=0;points=[[0,0.5],[1,0.5]];portConstraint=eastwest;fontStyle=2" vertex="1" parent="x0IX8e2E6TT8ZVlUjf_a-4">
          <mxGeometry y="166" width="243" height="26" as="geometry" />
        </mxCell>
        <mxCell id="03YbIPLs-VKFAo-6Qb1y-99" value="+ valorHoraTrabajada(): Double" style="text;align=left;verticalAlign=top;spacingLeft=4;spacingRight=4;overflow=hidden;rotatable=0;points=[[0,0.5],[1,0.5]];portConstraint=eastwest;fontStyle=2" vertex="1" parent="x0IX8e2E6TT8ZVlUjf_a-4">
          <mxGeometry y="192" width="243" height="26" as="geometry" />
        </mxCell>
        <mxCell id="03YbIPLs-VKFAo-6Qb1y-61" value="- montoPorHorasTrabajadas(): Double" style="text;align=left;verticalAlign=top;spacingLeft=4;spacingRight=4;overflow=hidden;rotatable=0;points=[[0,0.5],[1,0.5]];portConstraint=eastwest;fontStyle=0" vertex="1" parent="x0IX8e2E6TT8ZVlUjf_a-4">
          <mxGeometry y="218" width="243" height="26" as="geometry" />
        </mxCell>
        <mxCell id="03YbIPLs-VKFAo-6Qb1y-10" value="+ setCantHorasTrabajadas(Double): void" style="text;align=left;verticalAlign=top;spacingLeft=4;spacingRight=4;overflow=hidden;rotatable=0;points=[[0,0.5],[1,0.5]];portConstraint=eastwest;fontStyle=0" vertex="1" parent="x0IX8e2E6TT8ZVlUjf_a-4">
          <mxGeometry y="244" width="243" height="26" as="geometry" />
        </mxCell>
        <mxCell id="03YbIPLs-VKFAo-6Qb1y-9" value="+ setCantHijos(int): void" style="text;align=left;verticalAlign=top;spacingLeft=4;spacingRight=4;overflow=hidden;rotatable=0;points=[[0,0.5],[1,0.5]];portConstraint=eastwest;fontStyle=0" vertex="1" parent="x0IX8e2E6TT8ZVlUjf_a-4">
          <mxGeometry y="270" width="243" height="26" as="geometry" />
        </mxCell>
        <mxCell id="03YbIPLs-VKFAo-6Qb1y-77" value="+ setEstadoCivil(EstadoCivil): void" style="text;align=left;verticalAlign=top;spacingLeft=4;spacingRight=4;overflow=hidden;rotatable=0;points=[[0,0.5],[1,0.5]];portConstraint=eastwest;fontStyle=0" vertex="1" parent="x0IX8e2E6TT8ZVlUjf_a-4">
          <mxGeometry y="296" width="243" height="26" as="geometry" />
        </mxCell>
        <mxCell id="03YbIPLs-VKFAo-6Qb1y-46" value="+ getEstadoCivil(): EstadoCivil" style="text;align=left;verticalAlign=top;spacingLeft=4;spacingRight=4;overflow=hidden;rotatable=0;points=[[0,0.5],[1,0.5]];portConstraint=eastwest;fontStyle=0" vertex="1" parent="x0IX8e2E6TT8ZVlUjf_a-4">
          <mxGeometry y="322" width="243" height="26" as="geometry" />
        </mxCell>
        <mxCell id="03YbIPLs-VKFAo-6Qb1y-78" value="+ getCantHijos(): int" style="text;align=left;verticalAlign=top;spacingLeft=4;spacingRight=4;overflow=hidden;rotatable=0;points=[[0,0.5],[1,0.5]];portConstraint=eastwest;fontStyle=0" vertex="1" parent="x0IX8e2E6TT8ZVlUjf_a-4">
          <mxGeometry y="348" width="243" height="26" as="geometry" />
        </mxCell>
        <mxCell id="03YbIPLs-VKFAo-6Qb1y-103" value="+ valorPorHijo(): Double" style="text;align=left;verticalAlign=top;spacingLeft=4;spacingRight=4;overflow=hidden;rotatable=0;points=[[0,0.5],[1,0.5]];portConstraint=eastwest;fontStyle=0;labelBorderColor=light-dark(#000000,#990000);" vertex="1" parent="x0IX8e2E6TT8ZVlUjf_a-4">
          <mxGeometry y="374" width="243" height="26" as="geometry" />
        </mxCell>
        <mxCell id="x0IX8e2E6TT8ZVlUjf_a-9" value="Temporario" style="swimlane;fontStyle=0;align=center;verticalAlign=middle;childLayout=stackLayout;horizontal=1;startSize=40;horizontalStack=0;resizeParent=1;resizeLast=0;collapsible=1;marginBottom=0;rounded=0;shadow=0;strokeWidth=1;" parent="WIyWlLk6GJQsqaUBKTNV-1" vertex="1">
          <mxGeometry x="610" y="-210" width="200" height="170" as="geometry">
            <mxRectangle x="560" y="380" width="160" height="26" as="alternateBounds" />
          </mxGeometry>
        </mxCell>
        <mxCell id="x0IX8e2E6TT8ZVlUjf_a-10" value="" style="line;html=1;strokeWidth=1;align=left;verticalAlign=middle;spacingTop=-1;spacingLeft=3;spacingRight=3;rotatable=0;labelPosition=right;points=[];portConstraint=eastwest;" parent="x0IX8e2E6TT8ZVlUjf_a-9" vertex="1">
          <mxGeometry y="40" width="200" height="8" as="geometry" />
        </mxCell>
        <mxCell id="x0IX8e2E6TT8ZVlUjf_a-28" value="+ new(Double horas, &#xa;int cantHijos, EstadoCivil estCivil)" style="text;align=left;verticalAlign=top;spacingLeft=4;spacingRight=4;overflow=hidden;rotatable=0;points=[[0,0.5],[1,0.5]];portConstraint=eastwest;fontStyle=4" parent="x0IX8e2E6TT8ZVlUjf_a-9" vertex="1">
          <mxGeometry y="48" width="200" height="42" as="geometry" />
        </mxCell>
        <mxCell id="03YbIPLs-VKFAo-6Qb1y-67" value="+ sueldoBasico(): Double" style="text;align=left;verticalAlign=top;spacingLeft=4;spacingRight=4;overflow=hidden;rotatable=0;points=[[0,0.5],[1,0.5]];portConstraint=eastwest;fontStyle=0" vertex="1" parent="x0IX8e2E6TT8ZVlUjf_a-9">
          <mxGeometry y="90" width="200" height="26" as="geometry" />
        </mxCell>
        <mxCell id="03YbIPLs-VKFAo-6Qb1y-64" value="+ valorHoraTrabajada(): Double" style="text;align=left;verticalAlign=top;spacingLeft=4;spacingRight=4;overflow=hidden;rotatable=0;points=[[0,0.5],[1,0.5]];portConstraint=eastwest;fontStyle=0" vertex="1" parent="x0IX8e2E6TT8ZVlUjf_a-9">
          <mxGeometry y="116" width="200" height="26" as="geometry" />
        </mxCell>
        <mxCell id="03YbIPLs-VKFAo-6Qb1y-101" value="+ montoFamiliar(): Double" style="text;align=left;verticalAlign=top;spacingLeft=4;spacingRight=4;overflow=hidden;rotatable=0;points=[[0,0.5],[1,0.5]];portConstraint=eastwest;fontStyle=0" vertex="1" parent="x0IX8e2E6TT8ZVlUjf_a-9">
          <mxGeometry y="142" width="200" height="26" as="geometry" />
        </mxCell>
        <mxCell id="x0IX8e2E6TT8ZVlUjf_a-27" value="" style="endArrow=block;html=1;rounded=0;endFill=0;endSize=10;startSize=4;" parent="WIyWlLk6GJQsqaUBKTNV-1" edge="1">
          <mxGeometry width="50" height="50" relative="1" as="geometry">
            <mxPoint x="927" y="-250" as="sourcePoint" />
            <mxPoint x="927.01" y="-289" as="targetPoint" />
            <Array as="points" />
          </mxGeometry>
        </mxCell>
        <mxCell id="03YbIPLs-VKFAo-6Qb1y-28" value="Pasante" style="swimlane;fontStyle=0;align=center;verticalAlign=middle;childLayout=stackLayout;horizontal=1;startSize=40;horizontalStack=0;resizeParent=1;resizeLast=0;collapsible=1;marginBottom=0;rounded=0;shadow=0;strokeWidth=1;" vertex="1" parent="WIyWlLk6GJQsqaUBKTNV-1">
          <mxGeometry x="827" y="-210" width="200" height="170" as="geometry">
            <mxRectangle x="560" y="380" width="160" height="26" as="alternateBounds" />
          </mxGeometry>
        </mxCell>
        <mxCell id="03YbIPLs-VKFAo-6Qb1y-29" value="" style="line;html=1;strokeWidth=1;align=left;verticalAlign=middle;spacingTop=-1;spacingLeft=3;spacingRight=3;rotatable=0;labelPosition=right;points=[];portConstraint=eastwest;" vertex="1" parent="03YbIPLs-VKFAo-6Qb1y-28">
          <mxGeometry y="40" width="200" height="8" as="geometry" />
        </mxCell>
        <mxCell id="03YbIPLs-VKFAo-6Qb1y-44" value="+ new(Double horasExtras, &#xa;int cantHijos, EstadoCivil estCivil)" style="text;align=left;verticalAlign=top;spacingLeft=4;spacingRight=4;overflow=hidden;rotatable=0;points=[[0,0.5],[1,0.5]];portConstraint=eastwest;fontStyle=4" vertex="1" parent="03YbIPLs-VKFAo-6Qb1y-28">
          <mxGeometry y="48" width="200" height="42" as="geometry" />
        </mxCell>
        <mxCell id="03YbIPLs-VKFAo-6Qb1y-80" value="+ valorHoraTrabajada(): Double" style="text;align=left;verticalAlign=top;spacingLeft=4;spacingRight=4;overflow=hidden;rotatable=0;points=[[0,0.5],[1,0.5]];portConstraint=eastwest;fontStyle=0" vertex="1" parent="03YbIPLs-VKFAo-6Qb1y-28">
          <mxGeometry y="90" width="200" height="26" as="geometry" />
        </mxCell>
        <mxCell id="03YbIPLs-VKFAo-6Qb1y-82" value="+ sueldoBasico(): Double" style="text;align=left;verticalAlign=top;spacingLeft=4;spacingRight=4;overflow=hidden;rotatable=0;points=[[0,0.5],[1,0.5]];portConstraint=eastwest;fontStyle=0" vertex="1" parent="03YbIPLs-VKFAo-6Qb1y-28">
          <mxGeometry y="116" width="200" height="26" as="geometry" />
        </mxCell>
        <mxCell id="03YbIPLs-VKFAo-6Qb1y-108" value="+ montoFamiliar(): Double" style="text;align=left;verticalAlign=top;spacingLeft=4;spacingRight=4;overflow=hidden;rotatable=0;points=[[0,0.5],[1,0.5]];portConstraint=eastwest;fontStyle=0" vertex="1" parent="03YbIPLs-VKFAo-6Qb1y-28">
          <mxGeometry y="142" width="200" height="26" as="geometry" />
        </mxCell>
        <mxCell id="03YbIPLs-VKFAo-6Qb1y-34" value="Planta" style="swimlane;fontStyle=0;align=center;verticalAlign=middle;childLayout=stackLayout;horizontal=1;startSize=40;horizontalStack=0;resizeParent=1;resizeLast=0;collapsible=1;marginBottom=0;rounded=0;shadow=0;strokeWidth=1;" vertex="1" parent="WIyWlLk6GJQsqaUBKTNV-1">
          <mxGeometry x="1041" y="-210" width="200" height="200" as="geometry">
            <mxRectangle x="560" y="380" width="160" height="26" as="alternateBounds" />
          </mxGeometry>
        </mxCell>
        <mxCell id="03YbIPLs-VKFAo-6Qb1y-35" value="" style="line;html=1;strokeWidth=1;align=left;verticalAlign=middle;spacingTop=-1;spacingLeft=3;spacingRight=3;rotatable=0;labelPosition=right;points=[];portConstraint=eastwest;" vertex="1" parent="03YbIPLs-VKFAo-6Qb1y-34">
          <mxGeometry y="40" width="200" height="8" as="geometry" />
        </mxCell>
        <mxCell id="03YbIPLs-VKFAo-6Qb1y-45" value="+ new(Double horasExtras, &#xa;int cantHijos, EstadoCivil estCivil)" style="text;align=left;verticalAlign=top;spacingLeft=4;spacingRight=4;overflow=hidden;rotatable=0;points=[[0,0.5],[1,0.5]];portConstraint=eastwest;fontStyle=4" vertex="1" parent="03YbIPLs-VKFAo-6Qb1y-34">
          <mxGeometry y="48" width="200" height="42" as="geometry" />
        </mxCell>
        <mxCell id="03YbIPLs-VKFAo-6Qb1y-85" value="+ sueldoBasico(): Double" style="text;align=left;verticalAlign=top;spacingLeft=4;spacingRight=4;overflow=hidden;rotatable=0;points=[[0,0.5],[1,0.5]];portConstraint=eastwest;fontStyle=0" vertex="1" parent="03YbIPLs-VKFAo-6Qb1y-34">
          <mxGeometry y="90" width="200" height="26" as="geometry" />
        </mxCell>
        <mxCell id="03YbIPLs-VKFAo-6Qb1y-83" value="+ valorHoraTrabajada(): Double" style="text;align=left;verticalAlign=top;spacingLeft=4;spacingRight=4;overflow=hidden;rotatable=0;points=[[0,0.5],[1,0.5]];portConstraint=eastwest;fontStyle=0" vertex="1" parent="03YbIPLs-VKFAo-6Qb1y-34">
          <mxGeometry y="116" width="200" height="26" as="geometry" />
        </mxCell>
        <mxCell id="03YbIPLs-VKFAo-6Qb1y-102" value="+ montoFamiliar(): Double" style="text;align=left;verticalAlign=top;spacingLeft=4;spacingRight=4;overflow=hidden;rotatable=0;points=[[0,0.5],[1,0.5]];portConstraint=eastwest;fontStyle=0" vertex="1" parent="03YbIPLs-VKFAo-6Qb1y-34">
          <mxGeometry y="142" width="200" height="26" as="geometry" />
        </mxCell>
        <mxCell id="03YbIPLs-VKFAo-6Qb1y-107" value="+ valorPorHijo(): Double" style="text;align=left;verticalAlign=top;spacingLeft=4;spacingRight=4;overflow=hidden;rotatable=0;points=[[0,0.5],[1,0.5]];portConstraint=eastwest;fontStyle=0;labelBorderColor=light-dark(#000000,#990000);" vertex="1" parent="03YbIPLs-VKFAo-6Qb1y-34">
          <mxGeometry y="168" width="200" height="26" as="geometry" />
        </mxCell>
        <mxCell id="03YbIPLs-VKFAo-6Qb1y-41" value="" style="endArrow=none;html=1;rounded=0;exitX=0.35;exitY=0;exitDx=0;exitDy=0;exitPerimeter=0;" edge="1" parent="WIyWlLk6GJQsqaUBKTNV-1" source="x0IX8e2E6TT8ZVlUjf_a-9">
          <mxGeometry width="50" height="50" relative="1" as="geometry">
            <mxPoint x="681" y="-225" as="sourcePoint" />
            <mxPoint x="680" y="-254" as="targetPoint" />
          </mxGeometry>
        </mxCell>
        <mxCell id="03YbIPLs-VKFAo-6Qb1y-42" value="" style="endArrow=none;html=1;rounded=0;exitX=0.35;exitY=0;exitDx=0;exitDy=0;exitPerimeter=0;" edge="1" parent="WIyWlLk6GJQsqaUBKTNV-1">
          <mxGeometry width="50" height="50" relative="1" as="geometry">
            <mxPoint x="926.76" y="-210" as="sourcePoint" />
            <mxPoint x="926.76" y="-254" as="targetPoint" />
          </mxGeometry>
        </mxCell>
        <mxCell id="03YbIPLs-VKFAo-6Qb1y-43" value="" style="endArrow=none;html=1;rounded=0;exitX=0.35;exitY=0;exitDx=0;exitDy=0;exitPerimeter=0;" edge="1" parent="WIyWlLk6GJQsqaUBKTNV-1">
          <mxGeometry width="50" height="50" relative="1" as="geometry">
            <mxPoint x="1160" y="-210" as="sourcePoint" />
            <mxPoint x="1160" y="-254" as="targetPoint" />
          </mxGeometry>
        </mxCell>
        <mxCell id="03YbIPLs-VKFAo-6Qb1y-58" style="edgeStyle=orthogonalEdgeStyle;rounded=0;orthogonalLoop=1;jettySize=auto;html=1;entryX=-0.004;entryY=0.069;entryDx=0;entryDy=0;entryPerimeter=0;" edge="1" parent="WIyWlLk6GJQsqaUBKTNV-1" source="03YbIPLs-VKFAo-6Qb1y-7" target="UZqX43Rpj6E_O7g7snm4-12">
          <mxGeometry relative="1" as="geometry" />
        </mxCell>
        <mxCell id="03YbIPLs-VKFAo-6Qb1y-59" value="EstadoCivil" style="text;html=1;align=center;verticalAlign=middle;whiteSpace=wrap;rounded=0;" vertex="1" parent="WIyWlLk6GJQsqaUBKTNV-1">
          <mxGeometry x="1111" y="-650" width="60" height="30" as="geometry" />
        </mxCell>
        <mxCell id="03YbIPLs-VKFAo-6Qb1y-93" value="&lt;font style=&quot;color: light-dark(rgb(0, 0, 0), rgb(102, 102, 255));&quot;&gt;TEMPLATE&lt;/font&gt;" style="text;html=1;align=center;verticalAlign=middle;whiteSpace=wrap;rounded=0;fontColor=light-dark(#000000,#FF3333);labelBorderColor=light-dark(#000000,#6666FF);" vertex="1" parent="WIyWlLk6GJQsqaUBKTNV-1">
          <mxGeometry x="740" y="-600" width="60" height="30" as="geometry" />
        </mxCell>
        <mxCell id="03YbIPLs-VKFAo-6Qb1y-109" value="&lt;b&gt;HOOK&lt;/b&gt;" style="text;html=1;align=center;verticalAlign=middle;whiteSpace=wrap;rounded=0;fontColor=light-dark(#000000,#990000);labelBorderColor=light-dark(#000000,#660000);" vertex="1" parent="WIyWlLk6GJQsqaUBKTNV-1">
          <mxGeometry x="750" y="-320" width="60" height="30" as="geometry" />
        </mxCell>
      </root>
    </mxGraphModel>
  </diagram>
</mxfile>
